PathFileType	4	(X/Y/Z)	..\data\2014001\dynamic\2014001_C5_01.trc
DataRate	CameraRate	NumFrames	NumMarkers	Units	OrigDataRate	OrigDataStartFrame	OrigNumFrames
100.000000	100.000000	4	52	mm	100.000000	109	125
Frame#	Time	L_IAS			L_IPS			R_IPS			R_IAS			L_FTC			L_FLE			L_FME			L_FAX			L_TTC			L_FAL			L_TAM			L_FCC			L_FM1			L_FM2			L_FM5			R_FTC			R_FLE			R_FME			R_FAX			R_TTC			R_FAL			R_TAM			R_FCC			R_FM1			R_FM2			R_FM5			CV7			TV10			SXS			SJN			L_SIA			L_SRS			L_SAA			L_SAE			L_HLE			L_HME			L_UOA			L_RSP			L_UHE			L_HM2			L_HM5			R_SIA			R_SRS			R_SAA			R_SAE			R_HLE			R_HME			R_UOA			R_RSP			R_UHE			R_HM2			R_HM5			
		X1	Y1	Z1	X2	Y2	Z2	X3	Y3	Z3	X4	Y4	Z4	X5	Y5	Z5	X6	Y6	Z6	X7	Y7	Z7	X8	Y8	Z8	X9	Y9	Z9	X10	Y10	Z10	X11	Y11	Z11	X12	Y12	Z12	X13	Y13	Z13	X14	Y14	Z14	X15	Y15	Z15	X16	Y16	Z16	X17	Y17	Z17	X18	Y18	Z18	X19	Y19	Z19	X20	Y20	Z20	X21	Y21	Z21	X22	Y22	Z22	X23	Y23	Z23	X24	Y24	Z24	X25	Y25	Z25	X26	Y26	Z26	X27	Y27	Z27	X28	Y28	Z28	X29	Y29	Z29	X30	Y30	Z30	X31	Y31	Z31	X32	Y32	Z32	X33	Y33	Z33	X34	Y34	Z34	X35	Y35	Z35	X36	Y36	Z36	X37	Y37	Z37	X38	Y38	Z38	X39	Y39	Z39	X40	Y40	Z40	X41	Y41	Z41	X42	Y42	Z42	X43	Y43	Z43	X44	Y44	Z44	X45	Y45	Z45	X46	Y46	Z46	X47	Y47	Z47	X48	Y48	Z48	X49	Y49	Z49	X50	Y50	Z50	X51	Y51	Z51	X52	Y52	Z52	

110	1.09	1999.232177734375	859.5402832031252	-358.8579406738282	1826.970336914063	916.8952636718752	-294.2017517089844	1821.839965820313	908.7004394531252	-204.7761688232422	1993.167846679688	869.147888183594	-123.2470169067383	1914.231567382813	785.059753417969	-423.3258056640626	1808.619262695313	441.2572631835939	-372.4823303222657	1819.176879882813	436.4318847656251	-257.7502441406251	1774.46240234375	384.531463623047	-374.6801757812501	1827.122436523438	356.7014465332032	-322.7299499511719	1682.26513671875	77.6946258544922	-318.5134887695313	1702.417602539063	89.39402008056642	-230.0869445800782	1631.898315429688	46.97469711303712	-274.5093383789063	1811.571655273438	27.2069435119629	-243.7454223632813	1821.65771484375	34.9193229675293	-305.5535583496094	1767.786254882813	23.28179550170899	-350.7778015136719	1895.85498046875	772.9455566406252	-68.85665893554689	2055.57666015625	451.6229858398439	-80.26415252685548	2095.1455078125	448.5749511718751	-193.5815734863282	2051.41015625	385.1013793945314	-78.99498748779298	2124.980224609375	395.4891357421876	-113.1117706298828	2106.82373046875	75.27526092529298	-114.7281188964844	2156.589111328125	103.5618972778321	-186.2222900390625	2094.12158203125	25.34551811218262	-179.3578796386719	2266.621337890625	79.29512023925783	-138.8324890136719	2246.3603515625	85.85021209716798	-85.50082397460939	2195.53857421875	51.21760559082033	-60.12900543212892	1815.30078125	1362.5068359375	-232.6959381103516	1785.66943359375	1124.222900390625	-249.4771881103516	2020.670166015625	1169.747314453125	-230.8402404785157	1956.0888671875	1323.509765625	-224.6800079345704	1793.95361328125	1174.801513671875	-351.1878051757813	1789.989135742188	1306.326904296875	-332.5297851562501	1884.877563476563	1320.203125	-426.4939270019532	1917.493041992188	1335.385986328125	-405.3344116210939	1974.416625976563	1069.605590820313	-512.3212280273439	1936.698364257813	1019.144165039063	-453.534149169922	1949.612670898438	1020.80078125	-504.8421936035157	2149.319580078125	910.485534667969	-422.7932434082032	2133.52001953125	881.0073852539065	-494.2883605957032	2221.672607421875	865.0325317382815	-409.5383605957032	2172.5	812.8450317382815	-484.5049133300782	1767.333862304688	1166.430786132813	-138.939193725586	1778.291015625	1289.349243164063	-153.3022766113282	1840.892578125	1302.956665039063	-45.27043914794923	1890.1533203125	1312.935180664063	-47.22942352294923	1816.677368164063	1020.041625976563	19.01708793640137	1798.082275390625	1002.968627929688	-60.70481491088869	1786.974731445313	1002.121337890625	-15.60462856292725	1874.301147460938	797.114440917969	30.05942535400391	1805.466796875	810.134216308594	76.21451568603517	1883.098388671875	709.8391723632814	66.89212799072267	1784.349609375	734.3673095703126	84.49578857421876	
111	1.1	2018.267578125	855.4592285156252	-360.8422851562501	1847.283325195313	912.901062011719	-291.3105468750001	1843.801147460938	904.0605468750002	-202.1637115478516	2016.551147460938	864.7439575195315	-125.0338973999024	1930.011840820313	782.895446777344	-423.8410949707032	1817.075561523438	442.4977416992189	-372.7149963378907	1829.555419921875	436.9178161621095	-258.2521667480469	1781.988647460938	386.5845642089845	-374.7904052734376	1834.465209960938	357.2882080078126	-323.4593811035157	1683.489501953125	81.50376129150392	-318.7904052734376	1704.111572265625	92.60375213623048	-230.3797149658204	1632.496337890625	52.18348312377931	-274.5122070312501	1812.305297851563	26.71555900573731	-243.7948150634766	1822.841796875	34.54476928710938	-305.7492370605469	1768.240356445313	23.16667175292969	-350.8587341308594	1921.029541015625	768.184020996094	-67.94345855712892	2082.7119140625	448.9753723144532	-81.36891174316408	2121.60693359375	447.3267822265626	-195.4456176757813	2082.62744140625	382.6703186035157	-80.3105926513672	2155.683837890625	397.7687377929689	-114.5168228149414	2164.172607421875	76.28135681152345	-113.8601989746094	2211.557373046875	108.3889541625977	-185.5123443603516	2155.495361328125	24.59561157226563	-178.3596954345703	2324.275390625	92.43945312500001	-139.0507507324219	2303.647216796875	98.03289031982425	-85.83657836914064	2255.662841796875	59.21493148803712	-59.97078323364259	1837.989501953125	1358.859741210938	-232.7183685302735	1807.64208984375	1120.385009765625	-249.2111816406251	2043.044311523438	1165.270263671875	-231.571273803711	1978.779907226563	1319.090698242188	-224.4825134277344	1816.436645507813	1171.132080078125	-351.5766906738282	1813.00830078125	1303.01806640625	-332.9515991210938	1908.35498046875	1316.69921875	-426.8797302246095	1940.763305664063	1331.89013671875	-405.1653442382814	2003.884521484375	1067.682006835938	-512.5725097656251	1967.804565429688	1015.842407226563	-454.268280029297	1981.4326171875	1017.530151367188	-505.4872436523439	2186.020263671875	921.5332641601565	-416.4498291015626	2173.666015625	889.4036254882815	-487.0742797851564	2261.060546875	881.5230712890627	-400.610565185547	2216.92626953125	824.0219726562502	-474.5862731933595	1789.840087890625	1161.9208984375	-139.8032684326172	1801.315673828125	1285.0693359375	-153.5014953613282	1863.796997070313	1298.92626953125	-45.34442138671876	1913.208618164063	1308.53515625	-46.80790710449219	1830.805908203125	1018.552917480469	19.63743209838868	1813.785278320313	1001.168518066406	-60.3390350341797	1801.196533203125	1001.924743652344	-15.52024459838868	1878.043579101563	793.993591308594	36.11357116699219	1808.023193359375	810.784851074219	79.18852996826173	1881.307739257813	706.8494262695314	75.70703887939455	1782.893920898438	736.5210571289064	87.67831420898439	
112	1.11	2037.464965820313	851.4451904296877	-362.9533691406251	1867.831909179688	908.6501464843752	-288.1435241699219	1866.047485351563	899.1523437500002	-199.3134307861329	2040.292602539063	860.0723266601565	-126.9548492431641	1945.955932617188	780.785827636719	-424.211395263672	1826.826904296875	443.695281982422	-372.7643432617188	1841.431030273438	437.1596984863282	-258.5957946777344	1790.695678710938	388.6639709472657	-374.6846313476563	1842.990844726563	357.6685485839844	-324.1499328613282	1684.904663085938	85.72032928466798	-318.9496154785157	1706.236572265625	96.03837585449222	-230.6299743652344	1633.315063476563	57.98739624023439	-274.2866821289063	1812.885009765625	26.12672805786134	-243.7433776855469	1823.762817382813	34.1036491394043	-305.8773803710938	1768.469116210938	23.04588317871094	-350.8078308105469	1946.629272460938	763.0513916015626	-67.12895965576173	2110.075927734375	446.1376037597657	-82.43870544433595	2148.189453125	445.7030334472657	-197.3142242431641	2113.691650390625	380.3754882812501	-81.57190704345705	2186.02880859375	399.4929504394532	-116.0717239379883	2217.6513671875	78.31733703613283	-113.38671875	2262.505859375	113.6272964477539	-185.3497772216797	2212.2646484375	25.27363395690919	-177.6772613525391	2377.376953125	104.9481964111328	-140.2583618164063	2356.773681640625	109.7240066528321	-87.11315155029298	2311.549072265625	67.33099365234376	-60.58187484741212	1860.743774414063	1355.035400390625	-232.6328887939454	1829.644897460938	1116.320434570313	-248.6807403564454	2065.44384765625	1160.529663085938	-232.202133178711	2001.575439453125	1314.427490234375	-224.1953125000001	1838.82470703125	1167.286743164063	-351.7105102539063	1836.07421875	1299.56396484375	-333.2549438476563	1931.976806640625	1312.888549804688	-427.182830810547	1964.195434570313	1328.0732421875	-404.8871154785157	2033.019775390625	1065.500732421875	-512.6322631835939	1998.702026367188	1012.364318847656	-454.6602478027345	2012.981689453125	1014.098693847656	-505.805877685547	2221.355712890625	932.4473266601565	-410.3880004882814	2212.54296875	898.0940551757815	-480.1237792968751	2298.53564453125	898.1024169921877	-392.258514404297	2259.80908203125	835.8712158203127	-465.1170043945314	1812.4580078125	1157.2021484375	-140.449462890625	1824.42236328125	1280.652587890625	-153.5130767822266	1886.821533203125	1294.760131835938	-45.27352142333985	1936.392822265625	1304.003784179688	-46.25628662109376	1845.293579101563	1017.112060546875	20.55939865112305	1829.596069335938	999.3854980468752	-59.57230377197267	1815.682373046875	1001.720458984375	-14.98881530761719	1882.646118164063	791.4655761718752	41.50453186035157	1812.035034179688	811.7788696289065	81.80918121337892	1880.930541992188	704.8921508789064	83.52327728271486	1783.277099609375	739.1148071289064	90.3302688598633	
113	1.12	2057.005859375	847.6146240234377	-365.1242370605469	1888.780151367188	904.2830200195315	-284.8451538085938	1888.6796875	894.1738891601565	-196.3465118408204	2064.463623046875	855.386413574219	-128.9614715576172	1962.324096679688	778.7518310546877	-424.412322998047	1837.959350585938	444.805389404297	-372.6947021484376	1854.86181640625	437.0694885253907	-258.8538208007813	1800.660522460938	390.7340698242189	-374.4238891601563	1852.762451171875	357.7981262207032	-324.8753356933594	1686.654541015625	90.35433959960939	-319.0017089843751	1708.952758789063	99.69227600097659	-230.8778381347657	1634.543701171875	64.44104766845705	-273.8225708007813	1813.244384765625	25.44866943359376	-243.5725097656251	1824.3212890625	33.56427383422852	-305.9153137207032	1768.427856445313	22.9504508972168	-350.5919799804688	1972.68359375	757.8359375000001	-66.41996002197267	2137.803466796875	443.3489685058595	-83.50930786132814	2175.02294921875	443.9249877929689	-199.1445312500001	2144.623779296875	378.3068237304688	-82.79103851318361	2216.099365234375	400.6743469238282	-117.8089218139649	2266.650146484375	80.79360961914064	-113.3963317871094	2308.95556640625	118.6202239990235	-185.8166046142578	2263.663330078125	26.7743320465088	-177.4079132080078	2425.532470703125	115.9232940673828	-142.5116271972657	2405.331298828125	120.0381393432617	-89.38860321044923	2362.63037109375	74.7528533935547	-62.04018783569337	1883.530395507813	1351.13623046875	-232.4011230468751	1851.720947265625	1112.162353515625	-247.9264831542969	2087.884765625	1155.722412109375	-232.6787567138672	2024.453247070313	1309.703491210938	-223.799057006836	1861.141235351563	1163.408569335938	-351.6141967773438	1859.129028320313	1296.066040039063	-333.4021911621094	1955.68017578125	1308.951049804688	-427.3358764648439	1987.720825195313	1324.109741210938	-404.4434509277345	2061.7138671875	1063.224243164063	-512.4822387695314	2029.248413085938	1008.894226074219	-454.667449951172	2044.10205078125	1010.660827636719	-505.7829895019532	2255.22900390625	943.1314697265627	-404.6482238769532	2249.98828125	907.0020141601565	-473.5227355957032	2333.982421875	914.6204833984377	-384.561492919922	2300.983154296875	848.2864379882815	-456.2235717773439	1835.182495117188	1152.467651367188	-140.8574371337891	1847.592041015625	1276.233276367188	-153.319320678711	1909.929077148438	1290.624145507813	-45.0452003479004	1959.661499023438	1299.514526367188	-45.56357574462891	1860.283203125	1015.810791015625	21.71905517578125	1845.632446289063	997.7618408203127	-58.4801368713379	1830.567749023438	1001.599426269531	-14.07617092132569	1888.321533203125	789.4902343750002	46.20317077636719	1817.668212890625	813.0681152343752	84.13624572753908	1882.205078125	703.7874145507814	90.27017974853517	1785.644165039063	742.0369262695314	92.58548736572267	
